<mxfile host="app.diagrams.net" agent="Mozilla/5.0 (Windows NT 10.0; Win64; x64) AppleWebKit/537.36 (KHTML, like Gecko) Chrome/130.0.0.0 Safari/537.36" version="25.0.3">
  <diagram name="Trang-1" id="eUqzaLB1whG1kBdagGRP">
    <mxGraphModel dx="1006" dy="531" grid="1" gridSize="10" guides="1" tooltips="1" connect="1" arrows="1" fold="1" page="1" pageScale="1" pageWidth="827" pageHeight="1169" math="0" shadow="0">
      <root>
        <mxCell id="0" />
        <mxCell id="1" parent="0" />
        <mxCell id="92u1KL6CAQ0AJTdA99dS-1" value="Start" style="ellipse;whiteSpace=wrap;html=1;strokeColor=default;" parent="1" vertex="1">
          <mxGeometry x="384" y="120" width="96" height="60" as="geometry" />
        </mxCell>
        <mxCell id="92u1KL6CAQ0AJTdA99dS-3" value="" style="endArrow=classic;html=1;rounded=0;entryX=0.5;entryY=0;entryDx=0;entryDy=0;" parent="1" source="92u1KL6CAQ0AJTdA99dS-1" target="Cddu9Re6tyNk_VHcelvU-1" edge="1">
          <mxGeometry width="50" height="50" relative="1" as="geometry">
            <mxPoint x="390" y="300" as="sourcePoint" />
            <mxPoint x="432" y="240" as="targetPoint" />
          </mxGeometry>
        </mxCell>
        <mxCell id="92u1KL6CAQ0AJTdA99dS-5" value="Kiểm tra" style="rhombus;whiteSpace=wrap;html=1;" parent="1" vertex="1">
          <mxGeometry x="392" y="340" width="80" height="80" as="geometry" />
        </mxCell>
        <mxCell id="92u1KL6CAQ0AJTdA99dS-6" value="" style="endArrow=classic;html=1;rounded=0;exitX=0.5;exitY=1;exitDx=0;exitDy=0;entryX=0.5;entryY=0;entryDx=0;entryDy=0;" parent="1" source="Cddu9Re6tyNk_VHcelvU-1" target="92u1KL6CAQ0AJTdA99dS-5" edge="1">
          <mxGeometry width="50" height="50" relative="1" as="geometry">
            <mxPoint x="440.03999999999996" y="300" as="sourcePoint" />
            <mxPoint x="430" y="360" as="targetPoint" />
          </mxGeometry>
        </mxCell>
        <mxCell id="92u1KL6CAQ0AJTdA99dS-15" style="edgeStyle=orthogonalEdgeStyle;rounded=0;orthogonalLoop=1;jettySize=auto;html=1;entryX=0.5;entryY=0;entryDx=0;entryDy=0;" parent="1" source="92u1KL6CAQ0AJTdA99dS-7" target="Cddu9Re6tyNk_VHcelvU-2" edge="1">
          <mxGeometry relative="1" as="geometry">
            <mxPoint x="432" y="700" as="targetPoint" />
          </mxGeometry>
        </mxCell>
        <mxCell id="92u1KL6CAQ0AJTdA99dS-7" value="Lấy N chia i" style="rounded=0;whiteSpace=wrap;html=1;" parent="1" vertex="1">
          <mxGeometry x="372" y="470" width="120" height="60" as="geometry" />
        </mxCell>
        <mxCell id="92u1KL6CAQ0AJTdA99dS-8" value="" style="endArrow=classic;html=1;rounded=0;entryX=0.5;entryY=0;entryDx=0;entryDy=0;exitX=0.5;exitY=1;exitDx=0;exitDy=0;" parent="1" source="92u1KL6CAQ0AJTdA99dS-5" target="92u1KL6CAQ0AJTdA99dS-7" edge="1">
          <mxGeometry width="50" height="50" relative="1" as="geometry">
            <mxPoint x="390" y="500" as="sourcePoint" />
            <mxPoint x="440" y="450" as="targetPoint" />
          </mxGeometry>
        </mxCell>
        <mxCell id="92u1KL6CAQ0AJTdA99dS-9" value="" style="endArrow=classic;html=1;rounded=0;exitX=1;exitY=0.5;exitDx=0;exitDy=0;entryX=0;entryY=0.5;entryDx=0;entryDy=0;" parent="1" source="92u1KL6CAQ0AJTdA99dS-7" target="92u1KL6CAQ0AJTdA99dS-11" edge="1">
          <mxGeometry width="50" height="50" relative="1" as="geometry">
            <mxPoint x="390" y="500" as="sourcePoint" />
            <mxPoint x="630" y="500" as="targetPoint" />
          </mxGeometry>
        </mxCell>
        <mxCell id="92u1KL6CAQ0AJTdA99dS-10" value="không chia hết" style="text;html=1;align=center;verticalAlign=middle;resizable=0;points=[];autosize=1;strokeColor=none;fillColor=none;rotation=45;" parent="1" vertex="1">
          <mxGeometry x="490" y="555" width="100" height="30" as="geometry" />
        </mxCell>
        <mxCell id="92u1KL6CAQ0AJTdA99dS-24" style="edgeStyle=orthogonalEdgeStyle;rounded=0;orthogonalLoop=1;jettySize=auto;html=1;exitX=0.5;exitY=0;exitDx=0;exitDy=0;entryX=1;entryY=0.25;entryDx=0;entryDy=0;" parent="1" source="92u1KL6CAQ0AJTdA99dS-11" target="92u1KL6CAQ0AJTdA99dS-7" edge="1">
          <mxGeometry relative="1" as="geometry" />
        </mxCell>
        <mxCell id="92u1KL6CAQ0AJTdA99dS-29" style="edgeStyle=orthogonalEdgeStyle;rounded=0;orthogonalLoop=1;jettySize=auto;html=1;exitX=0.5;exitY=1;exitDx=0;exitDy=0;entryX=0.5;entryY=0;entryDx=0;entryDy=0;" parent="1" source="92u1KL6CAQ0AJTdA99dS-11" target="Cddu9Re6tyNk_VHcelvU-3" edge="1">
          <mxGeometry relative="1" as="geometry">
            <mxPoint x="680" y="890" as="targetPoint" />
          </mxGeometry>
        </mxCell>
        <mxCell id="92u1KL6CAQ0AJTdA99dS-11" value="Tăng i++" style="rounded=0;whiteSpace=wrap;html=1;" parent="1" vertex="1">
          <mxGeometry x="620" y="610" width="120" height="60" as="geometry" />
        </mxCell>
        <mxCell id="92u1KL6CAQ0AJTdA99dS-22" style="edgeStyle=orthogonalEdgeStyle;rounded=0;orthogonalLoop=1;jettySize=auto;html=1;entryX=1;entryY=0.5;entryDx=0;entryDy=0;exitX=0;exitY=0.5;exitDx=0;exitDy=0;" parent="1" source="Cddu9Re6tyNk_VHcelvU-3" target="92u1KL6CAQ0AJTdA99dS-19" edge="1">
          <mxGeometry relative="1" as="geometry">
            <mxPoint x="620" y="920" as="sourcePoint" />
          </mxGeometry>
        </mxCell>
        <mxCell id="92u1KL6CAQ0AJTdA99dS-16" value="Đặt i=2" style="text;html=1;align=center;verticalAlign=middle;resizable=0;points=[];autosize=1;strokeColor=none;fillColor=none;" parent="1" vertex="1">
          <mxGeometry x="430" y="428" width="60" height="30" as="geometry" />
        </mxCell>
        <mxCell id="92u1KL6CAQ0AJTdA99dS-21" style="edgeStyle=orthogonalEdgeStyle;rounded=0;orthogonalLoop=1;jettySize=auto;html=1;exitX=0.5;exitY=1;exitDx=0;exitDy=0;entryX=0.5;entryY=0;entryDx=0;entryDy=0;" parent="1" source="Cddu9Re6tyNk_VHcelvU-2" target="92u1KL6CAQ0AJTdA99dS-19" edge="1">
          <mxGeometry relative="1" as="geometry">
            <mxPoint x="432" y="760" as="sourcePoint" />
          </mxGeometry>
        </mxCell>
        <mxCell id="92u1KL6CAQ0AJTdA99dS-19" value="Kết Thúc&amp;nbsp;" style="rhombus;whiteSpace=wrap;html=1;" parent="1" vertex="1">
          <mxGeometry x="392" y="880" width="80" height="80" as="geometry" />
        </mxCell>
        <mxCell id="92u1KL6CAQ0AJTdA99dS-23" value="Nếu i = N" style="text;html=1;align=center;verticalAlign=middle;resizable=0;points=[];autosize=1;strokeColor=none;fillColor=none;" parent="1" vertex="1">
          <mxGeometry x="685" y="750" width="70" height="30" as="geometry" />
        </mxCell>
        <mxCell id="92u1KL6CAQ0AJTdA99dS-25" value="Nếu i &amp;lt; N" style="text;html=1;align=center;verticalAlign=middle;resizable=0;points=[];autosize=1;strokeColor=none;fillColor=none;" parent="1" vertex="1">
          <mxGeometry x="695" y="500" width="70" height="30" as="geometry" />
        </mxCell>
        <mxCell id="92u1KL6CAQ0AJTdA99dS-26" value="Chia hết" style="text;html=1;align=center;verticalAlign=middle;resizable=0;points=[];autosize=1;strokeColor=none;fillColor=none;" parent="1" vertex="1">
          <mxGeometry x="360" y="598" width="70" height="30" as="geometry" />
        </mxCell>
        <mxCell id="Cddu9Re6tyNk_VHcelvU-1" value="Nhập Số N" style="shape=parallelogram;perimeter=parallelogramPerimeter;whiteSpace=wrap;html=1;fixedSize=1;" vertex="1" parent="1">
          <mxGeometry x="372" y="240" width="120" height="60" as="geometry" />
        </mxCell>
        <mxCell id="Cddu9Re6tyNk_VHcelvU-2" value="N không phải số nguyên tố&amp;nbsp;" style="shape=parallelogram;perimeter=parallelogramPerimeter;whiteSpace=wrap;html=1;fixedSize=1;" vertex="1" parent="1">
          <mxGeometry x="372" y="700" width="120" height="60" as="geometry" />
        </mxCell>
        <mxCell id="Cddu9Re6tyNk_VHcelvU-3" value="N là số nguyên tố" style="shape=parallelogram;perimeter=parallelogramPerimeter;whiteSpace=wrap;html=1;fixedSize=1;" vertex="1" parent="1">
          <mxGeometry x="620" y="890" width="120" height="60" as="geometry" />
        </mxCell>
      </root>
    </mxGraphModel>
  </diagram>
</mxfile>
